<svg id="Calque_1" data-name="Calque 1" xmlns="http://www.w3.org/2000/svg" viewBox="0 0 1306.22 1311.85"><defs><style>.cls-1{fill:#00adff;}.cls-2{fill:#f05245;}.cls-3{fill:#1cebcf;}.cls-4{fill:#ffe300;}</style></defs><path class="cls-1" d="M1005.91,300.34A498.31,498.31,0,0,0,698.55,156c-13.64-1.27-21.33,15.44-11.65,25.12l180,180a1.33,1.33,0,0,1-1.73,2,346.19,346.19,0,0,0-171.42-64.39c-9.45-.87-14.73,10.75-8,17.46L808.49,439a1.33,1.33,0,0,1-1.71,2A236.8,236.8,0,0,0,695.3,400.89a7,7,0,0,0-5.55,12L898.36,621.47a7,7,0,0,0,12-5.61,236.92,236.92,0,0,0-40.11-111.42,1.33,1.33,0,0,1,2-1.71L990,620.51c6.71,6.72,18.33,1.44,17.45-8A346,346,0,0,0,943.1,441.07a1.33,1.33,0,0,1,2-1.73l180,180c9.84,9.85,26.4,1.84,25.1-12a498.38,498.38,0,0,0-144.31-307"/><path class="cls-2" d="M300.31,300.34A498.31,498.31,0,0,1,607.67,156c13.64-1.27,21.33,15.44,11.65,25.12l-180,180a1.33,1.33,0,0,0,1.73,2,346.19,346.19,0,0,1,171.42-64.39c9.45-.87,14.73,10.75,8,17.46L497.72,439a1.33,1.33,0,0,0,1.71,2,236.84,236.84,0,0,1,111.5-40.13,7,7,0,0,1,5.54,12L407.86,621.47a7,7,0,0,1-12-5.61A237,237,0,0,1,436,504.44a1.33,1.33,0,0,0-2-1.71L316.19,620.51c-6.72,6.72-18.34,1.44-17.47-8a346.11,346.11,0,0,1,64.4-171.43,1.33,1.33,0,0,0-2-1.73l-180,180c-9.84,9.85-26.4,1.84-25.1-12a498.32,498.32,0,0,1,144.31-307"/><path class="cls-3" d="M300.31,1011.51a498.33,498.33,0,0,0,307.36,144.35c13.64,1.27,21.33-15.45,11.65-25.13l-180-180a1.33,1.33,0,0,1,1.73-2,346,346,0,0,0,171.42,64.39c9.45.88,14.73-10.75,8-17.46L497.72,872.88a1.33,1.33,0,0,1,1.71-2A236.94,236.94,0,0,0,610.93,911a7,7,0,0,0,5.54-12L407.86,690.39a7,7,0,0,0-12,5.6A237,237,0,0,0,436,807.41a1.33,1.33,0,0,1-2,1.71L316.19,691.34c-6.72-6.71-18.34-1.44-17.47,8a346.11,346.11,0,0,0,64.4,171.42,1.33,1.33,0,0,1-2,1.74l-180-180c-9.84-9.84-26.4-1.83-25.1,12a498.3,498.3,0,0,0,144.31,307"/><path class="cls-4" d="M1005.91,1011.51a498.33,498.33,0,0,1-307.36,144.35c-13.64,1.27-21.33-15.45-11.65-25.13l180-180a1.33,1.33,0,0,0-1.73-2,346,346,0,0,1-171.42,64.39c-9.45.88-14.73-10.75-8-17.46L808.49,872.88a1.33,1.33,0,0,0-1.71-2A236.91,236.91,0,0,1,695.3,911a7,7,0,0,1-5.55-12L898.36,690.39a7,7,0,0,1,12,5.6,236.84,236.84,0,0,1-40.11,111.42,1.33,1.33,0,0,0,2,1.71L990,691.34c6.71-6.71,18.33-1.44,17.45,8A346,346,0,0,1,943.1,870.78a1.33,1.33,0,0,0,2,1.74l180-180c9.84-9.84,26.4-1.83,25.1,12a498.35,498.35,0,0,1-144.31,307"/></svg>